#!OML:ASF H:\Terrain\Walking\May29\JustinRory\Justin.ASF
:FULLY-SPECIFIED
:DEGREES
211
root 0.564337 16.8903 -6.41267 16.7994 -36.3316 -13.5119
lowerback 8.43957 2.1977 3.14207
upperback 4.32401 3.104 6.68362
thorax -0.442103 1.47929 4.91108
lowerneck -16.89 6.92481 -1.96884
upperneck 14.2797 10.8095 -5.14979
head 7.3567 4.56601 -0.151119
rclavicle 1.78906e-014 6.67916e-014
rhumerus -32.2478 -24.4331 -51.6496
rradius 106.629
rwrist -38.8583
rhand -38.042 40.1583
rfingers 7.12502
rthumb -11.0797 10.4708
lclavicle 1.78906e-014 6.67916e-014
lhumerus -45.2964 17.6375 75.0949
lradius 27.1503
lwrist -15.7687
lhand 7.57768 38.7733
lfingers 7.12502
lthumb 32.8254 65.8102
rfemur -8.74122 -8.45316 23.8867
rtibia 28.8159
rfoot -21.9423 -19.1371
rtoes -11.1493
lfemur -34.5647 16.8957 -22.3204
ltibia 49.4006
lfoot -25.9824 12.5526
ltoes 11.8789
212
root 0.545598 16.8756 -6.3583 16.6426 -35.7427 -13.3617
lowerback 8.44413 2.02261 3.07937
upperback 4.3322 2.86795 6.66584
thorax -0.423378 1.36115 4.94933
lowerneck -17.6053 6.87933 -1.31243
upperneck 14.8752 10.7805 -5.78008
head 7.75167 4.48149 -0.41928
rclavicle -2.28602e-014 -1.11319e-014
rhumerus -32.5871 -24.5765 -51.1748
rradius 106.866
rwrist -39.5025
rhand -38.1833 39.8869
rfingers 7.12502
rthumb -11.216 10.2067
lclavicle -2.28602e-014 -1.11319e-014
lhumerus -45.2559 17.2516 75.2965
lradius 27.0609
lwrist -15.4249
lhand 7.94163 38.6705
lfingers 7.12502
lthumb 33.1715 65.6343
rfemur -9.20974 -8.80102 23.9726
rtibia 30.1189
rfoot -22.0796 -19.9526
rtoes -12.7741
lfemur -34.3558 16.5431 -22.2405
ltibia 49.3561
lfoot -25.838 12.1134
ltoes 10.2121
213
root 0.53172 16.8698 -6.3012 16.2858 -35.1097 -12.9347
lowerback 8.3306 1.86641 3.05802
upperback 4.43776 2.64395 6.44034
thorax -0.227546 1.2522 4.74861
lowerneck -17.0184 6.87102 -2.13218
upperneck 14.2558 10.7077 -4.76161
head 7.33534 4.54479 -0.0108263
rclavicle 4.77083e-014 -1.27222e-014
rhumerus -33.2825 -24.8832 -50.6584
rradius 107.198
rwrist -40.1532
rhand -37.4232 39.1764
rfingers 7.12502
rthumb -10.4829 9.45775
lclavicle 4.77083e-014 -1.27222e-014
lhumerus -44.8807 16.6122 75.5209
lradius 26.9582
lwrist -15.1603
lhand 8.14292 38.6019
lfingers 7.12502
lthumb 33.3629 65.5249
rfemur -9.67969 -9.42933 23.7974
rtibia 31.4287
rfoot -21.6704 -21.0131
rtoes -15.7211
lfemur -33.9128 16.1144 -22.4364
ltibia 49.2641
lfoot -25.7419 11.7141
ltoes 8.83383
214
root 0.510255 16.8735 -6.24181 15.991 -34.4964 -12.5988
lowerback 8.17605 1.71896 3.10362
upperback 4.49553 2.43836 6.16907
thorax -0.0568741 1.15493 4.45969
lowerneck -16.8478 6.73114 -1.88103
upperneck 13.8492 10.4511 -4.93331
head 7.19269 4.44009 -0.146767
rclavicle -1.49089e-014 -2.46493e-014
rhumerus -33.9873 -25.5833 -50.3834
rradius 107.42
rwrist -40.7983
rhand -37.345 39.4171
rfingers 7.12502
rthumb -10.4074 9.69465
lclavicle -1.49089e-014 -2.46493e-014
lhumerus -44.6334 16.4556 75.2987
lradius 26.859
lwrist -15.6407
lhand 8.24228 38.7132
lfingers 7.12502
lthumb 33.4574 65.6158
rfemur -10.0858 -10.0276 23.6252
rtibia 32.7813
rfoot -21.4734 -21.5827
rtoes -15.4452
lfemur -33.3857 15.8925 -22.5793
ltibia 49.0352
lfoot -25.9121 11.0204
ltoes 9.54988
215
root 0.489901 16.8856 -6.1786 15.8411 -33.9179 -12.5025
lowerback 8.05489 1.46987 3.02987
upperback 4.54481 2.09177 6.12616
thorax 0.0793593 0.981354 4.48894
lowerneck -16.6888 6.69649 -2.37286
upperneck 13.6538 10.4165 -4.46822
head 7.04754 4.45373 0.061523
rclavicle -8.15017e-015 6.36111e-015
rhumerus -34.1368 -25.749 -50.3567
rradius 107.432
rwrist -41.2796
rhand -37.4344 39.6366
rfingers 7.12502
rthumb -10.4937 9.91857
lclavicle -8.15017e-015 6.36111e-015
lhumerus -44.552 16.8409 75.0011
lradius 26.8152
lwrist -16.2873
lhand 8.17871 38.7409
lfingers 7.12502
lthumb 33.3969 65.6565
rfemur -10.5808 -10.7661 23.611
rtibia 34.3082
rfoot -21.0207 -21.8951
rtoes -15.424
lfemur -32.9044 15.7133 -22.5365
ltibia 48.6321
lfoot -26.0387 10.4941
ltoes 10.2941
216
root 0.487706 16.9 -6.10472 15.3721 -33.5209 -12.0187
lowerback 8.14147 1.29511 2.7612
upperback 4.5944 1.84565 6.00227
thorax 0.0916323 0.856019 4.52929
lowerneck -16.779 6.68209 -2.29715
upperneck 13.6527 10.4192 -4.67526
head 7.07939 4.43706 -0.0118508
rclavicle -7.93151e-014 1.39149e-014
rhumerus -34.5522 -25.669 -50.0054
rradius 107.565
rwrist -41.6094
rhand -37.5458 39.6658
rfingers 7.12502
rthumb -10.6012 9.9532
lclavicle -7.93151e-014 1.39149e-014
lhumerus -44.414 17.0145 74.9108
lradius 26.8952
lwrist -16.878
lhand 8.03009 38.5787
lfingers 7.12502
lthumb 33.2556 65.5246
rfemur -11.1306 -11.7692 23.0914
rtibia 36.0655
rfoot -19.9026 -22.1808
rtoes -17.7829
lfemur -32.1668 15.379 -22.895
ltibia 48.0612
lfoot -26.1727 10.1902
ltoes 11.3553
217
root 0.484137 16.9075 -6.03556 14.8209 -33.2824 -11.2927
lowerback 8.19137 1.3128 2.37504
upperback 4.60657 1.84913 5.77282
thorax 0.070026 0.856414 4.50459
lowerneck -16.3273 6.5666 -2.44415
upperneck 13.1859 10.251 -4.7228
head 6.84466 4.37397 -0.0478777
rclavicle -3.4191e-014 -3.61788e-014
rhumerus -35.5167 -25.8548 -49.2124
rradius 107.78
rwrist -41.4721
rhand -37.7483 38.4921
rfingers 7.12502
rthumb -10.7965 8.78958
lclavicle -3.4191e-014 -3.61788e-014
lhumerus -44.1206 16.7047 75.0612
lradius 27.0176
lwrist -17.3803
lhand 8.281 38.587
lfingers 7.12502
lthumb 33.4942 65.4816
rfemur -11.8384 -12.1105 22.327
rtibia 37.9872
rfoot -19.2375 -22.4147
rtoes -17.785
lfemur -31.3795 15.1668 -23.5398
ltibia 47.4238
lfoot -26.2911 9.87773
ltoes 11.8825
218
root 0.471073 16.91 -5.98241 14.5327 -33.0177 -10.8488
lowerback 8.0281 1.36937 2.06845
upperback 4.69509 1.89135 5.64965
thorax 0.242708 0.874325 4.54977
lowerneck -16.0537 6.46491 -2.97072
upperneck 12.9692 10.1327 -4.29932
head 6.67592 4.3448 0.13865
rclavicle -1.27222e-014 2.10712e-014
rhumerus -36.2052 -26.2172 -48.4947
rradius 107.799
rwrist -40.9496
rhand -38.6754 37.8037
rfingers 7.12502
rthumb -11.6907 8.14993
lclavicle -1.27222e-014 2.10712e-014
lhumerus -43.5858 15.9428 75.6283
lradius 27.3154
lwrist -17.1518
lhand 8.84117 38.9555
lfingers 7.12502
lthumb 34.0264 65.7334
rfemur -12.8457 -11.8294 21.9457
rtibia 40.057
rfoot -18.776 -22.8915
rtoes -16.5252
lfemur -30.8015 15.07 -23.9292
ltibia 46.8213
lfoot -26.2651 9.57785
ltoes 11.3311
219
root 0.469838 16.9142 -5.92447 14.2167 -32.4542 -10.7492
lowerback 8.1422 1.29241 2.30359
upperback 4.78252 1.80471 5.56986
thorax 0.286128 0.835403 4.33895
lowerneck -15.92 6.38045 -3.37677
upperneck 12.9491 10.0463 -3.9715
head 6.6075 4.31636 0.288991
rclavicle 7.95139e-014 3.10104e-014
rhumerus -36.7917 -26.5352 -48.0971
rradius 107.826
rwrist -41.2404
rhand -39.9905 39.6499
rfingers 7.12502
rthumb -12.9586 10.0723
lclavicle 7.95139e-014 3.10104e-014
lhumerus -43.1055 15.0146 76.275
lradius 27.7798
lwrist -16.5326
lhand 8.81808 39.1193
lfingers 7.12502
lthumb 34.0045 65.902
rfemur -13.7142 -11.9387 21.8791
rtibia 42.2161
rfoot -17.3242 -23.6152
rtoes -17.2159
lfemur -30.0382 14.7514 -23.8889
ltibia 46.2758
lfoot -26.2495 9.20169
ltoes 11.3141
220
root 0.476675 16.9237 -5.86643 13.9351 -31.9475 -10.6067
lowerback 8.44323 1.16258 2.38897
upperback 4.6964 1.66213 5.49834
thorax 0.0434776 0.767809 4.22026
lowerneck -15.5752 6.3638 -3.46516
upperneck 12.8063 10.0088 -3.93682
head 6.497 4.3097 0.294369
rclavicle 2.92213e-014 -1.94809e-014
rhumerus -37.4633 -26.2793 -47.9411
rradius 107.966
rwrist -42.4182
rhand -39.9711 41.516
rfingers 7.12502
rthumb -12.9399 11.9372
lclavicle 2.92213e-014 -1.94809e-014
lhumerus -42.9034 14.3714 76.6779
lradius 28.1303
lwrist -16.1001
lhand 8.14272 39.0059
lfingers 7.12502
lthumb 33.3627 65.9289
rfemur -14.7414 -12.1679 21.8308
rtibia 44.3498
rfoot -14.1898 -24.6253
rtoes -20.5527
lfemur -29.3588 14.474 -23.9253
ltibia 45.6897
lfoot -26.1144 9.0798
ltoes 9.32536
221
root 0.474592 16.9394 -5.81002 13.6719 -31.5409 -10.1806
lowerback 8.45132 1.06659 1.96209
upperback 4.66227 1.51037 5.46298
thorax 0.00133256 0.686827 4.43708
lowerneck -15.5324 6.33444 -3.54977
upperneck 12.7653 9.98456 -3.95026
head 6.47349 4.29512 0.298267
rclavicle -6.12257e-014 -2.42517e-014
rhumerus -37.9444 -25.7622 -47.7913
rradius 108.117
rwrist -43.8345
rhand -39.3109 41.8621
rfingers 7.12502
rthumb -12.3034 12.244
lclavicle -6.12257e-014 -2.42517e-014
lhumerus -42.5756 14.3843 76.8511
lradius 28.4243
lwrist -16.2473
lhand 7.68363 39.0256
lfingers 7.12502
lthumb 32.9262 66.0414
rfemur -15.8695 -12.1905 21.5716
rtibia 46.5114
rfoot -10.9226 -25.2391
rtoes -21.2576
lfemur -28.8102 14.2891 -24.2733
ltibia 45.0222
lfoot -26.0102 8.93634
ltoes 6.59978
222
root 0.462273 16.975 -5.73884 13.2847 -31.0366 -9.6022
lowerback 8.21013 0.968235 1.57805
upperback 4.76562 1.3378 5.31644
thorax 0.246382 0.595463 4.51973
lowerneck -15.7987 6.25119 -3.52243
upperneck 12.9249 9.89885 -3.99388
head 6.57369 4.23909 0.284648
rclavicle 3.39922e-014 -2.22639e-014
rhumerus -38.507 -26.0771 -47.3126
rradius 108.358
rwrist -43.3061
rhand -38.4326 37.9891
rfingers 7.12502
rthumb -11.4565 8.3221
lclavicle 3.39922e-014 -2.22639e-014
lhumerus -42.0686 14.7417 76.7955
lradius 28.8915
lwrist -16.659
lhand 7.58075 39.0675
lfingers 7.12502
lthumb 32.8283 66.1038
rfemur -16.7714 -11.1083 20.7369
rtibia 48.7138
rfoot -12.1625 -24.7238
rtoes -5.10715
lfemur -28.0022 14.0481 -24.7272
ltibia 44.2254
lfoot -26.0001 8.30219
ltoes 7.12135
223
root 0.445396 16.9933 -5.67472 12.7992 -30.4495 -8.91932
lowerback 8.15823 0.808524 1.12081
upperback 4.77578 1.09611 5.0949
thorax 0.29652 0.470611 4.56642
lowerneck -16.0027 6.28532 -3.37007
upperneck 13.2357 9.94167 -3.98472
head 6.71527 4.25073 0.282305
rclavicle -3.85642e-014 -1.70955e-014
rhumerus -39.139 -26.3649 -46.9501
rradius 108.116
rwrist -41.947
rhand -37.6237 37.0609
rfingers 7.12502
rthumb -10.6763 7.35219
lclavicle -3.85642e-014 -1.70955e-014
lhumerus -41.7865 14.3373 76.9724
lradius 29.676
lwrist -16.0192
lhand 7.33395 39.1533
lfingers 7.12502
lthumb 32.5935 66.2384
rfemur -17.7478 -10.5718 19.9523
rtibia 50.919
rfoot -11.6877 -24.6263
rtoes 2.09398
lfemur -27.1719 13.7613 -25.2485
ltibia 43.4742
lfoot -26.0217 7.49242
ltoes 8.97863
224
root 0.425355 16.9942 -5.62751 12.165 -29.7678 -8.1652
lowerback 8.43561 0.602391 0.325424
upperback 4.74467 0.783133 4.95516
thorax 0.125307 0.30444 4.89573
lowerneck -16.3422 6.41482 -3.19347
upperneck 13.6854 10.1135 -3.9148
head 6.92331 4.32296 0.316658
rclavicle 1.70955e-014 2.06736e-014
rhumerus -39.588 -25.8058 -47.186
rradius 108.797
rwrist -43.5142
rhand -39.1836 37.9142
rfingers 7.12502
rthumb -12.1807 8.28883
lclavicle 1.70955e-014 2.06736e-014
lhumerus -41.6865 13.5717 77.3652
lradius 30.64
lwrist -14.9282
lhand 6.93046 39.2684
lfingers 7.12502
lthumb 32.2095 66.4321
rfemur -18.697 -10.2204 19.2283
rtibia 53.0294
rfoot -10.3392 -24.6709
rtoes 4.56813
lfemur -26.2617 13.4634 -25.7438
ltibia 42.7708
lfoot -26.0978 6.57263
ltoes 10.8379
225
root 0.408132 16.9913 -5.5818 11.8615 -29.1436 -8.02019
lowerback 8.63946 0.451758 -0.00995746
upperback 4.7888 0.563915 4.97825
thorax 0.0747434 0.188294 5.13032
lowerneck -16.8219 6.43507 -3.11693
upperneck 14.0778 10.1678 -3.87634
head 7.13443 4.33038 0.348331
rclavicle -7.15625e-015 3.97569e-015
rhumerus -40.0714 -25.4224 -47.3806
rradius 109.094
rwrist -44.0179
rhand -40.259 39.4678
rfingers 7.12502
rthumb -13.2174 9.90686
lclavicle -7.15625e-015 3.97569e-015
lhumerus -41.4558 13.3375 77.6489
lradius 31.6023
lwrist -14.3739
lhand 6.32898 39.1237
lfingers 7.12502
lthumb 31.6367 66.4018
rfemur -19.6293 -9.63997 19.1349
rtibia 54.9848
rfoot -9.05429 -24.5461
rtoes 6.95919
lfemur -25.4382 13.3379 -25.6618
ltibia 42.1341
lfoot -26.078 5.82308
ltoes 11.1952
